2.6Hz3min_grf.mot
version=1
nRows=15
nColumns 19
inDegrees=yes
endheader
time	1_ground_force_vx	1_ground_force_vy	1_ground_force_vz	1_ground_force_px	1_ground_force_py	1_ground_force_pz	1_ground_torque_x	1_ground_torque_y	1_ground_torque_z	2_ground_force_vx	2_ground_force_vy	2_ground_force_vz	2_ground_force_px	2_ground_force_py	2_ground_force_pz	2_ground_torque_x	2_ground_torque_y	2_ground_torque_z
            0.005000	           -0.045598	           -0.721268	            0.042878	           -0.276626	            0.005987	           -0.352065	            0.016801	           -0.211728	           -0.209658	            0.566413	           -1.104701	            0.512028	           -0.220192	            0.005775	           -0.721769	           -0.018494	           -0.094191	           -0.113431
            0.005500	            0.000716	           -0.181445	            0.274363	           -0.276626	            0.005987	           -0.352065	           -0.011974	           -0.082538	           -0.150703	           -0.088342	           -1.473860	            0.088640	           -0.220192	            0.005775	           -0.721769	           -0.093388	           -0.160699	           -0.094784
            0.006000	            0.459212	           -0.541888	            0.271679	           -0.276626	            0.005987	           -0.352065	            0.044777	            0.092986	           -0.055338	           -0.322591	           -1.474705	            0.088739	           -0.220192	            0.005775	           -0.721769	           -0.112197	           -0.169749	           -0.226762
            0.006500	            0.230191	           -0.362060	            0.364732	           -0.276626	            0.005987	           -0.352065	           -0.053376	            0.139485	           -0.158666	           -0.371455	           -0.922262	            0.043802	           -0.220192	            0.005775	           -0.721769	           -0.130926	           -0.161103	           -0.019368
            0.007000	           -0.136196	            0.177880	            0.551385	           -0.276626	            0.005987	           -0.352065	            0.088750	            0.046674	           -0.118679	           -0.224842	           -2.579759	            0.225541	           -0.220192	            0.005775	           -0.721769	           -0.168733	           -0.113438	           -0.169985
            0.007500	           -0.045175	           -0.541789	            0.227074	           -0.276626	            0.005987	           -0.352065	           -0.028471	           -0.082726	           -0.115008	            0.100552	           -1.842819	            0.462671	           -0.220192	            0.005775	           -0.721769	           -0.112302	           -0.123023	           -0.075791
            0.008000	           -0.319613	           -1.443957	            0.407316	           -0.276626	            0.005987	           -0.352065	           -0.035813	           -0.202850	           -0.164797	            0.282675	           -0.369290	            0.561704	           -0.220192	            0.005775	           -0.721769	           -0.074917	           -0.084673	           -0.188774
            0.008500	           -0.366058	           -1.262717	            0.178923	           -0.276626	            0.005987	           -0.352065	           -0.007572	           -0.202551	           -0.242020	            0.287287	           -1.657994	            0.463248	           -0.220192	            0.005775	           -0.721769	           -0.074712	           -0.141389	           -0.188976
            0.009000	           -0.045696	           -0.180471	            0.045197	           -0.276626	            0.005987	           -0.352065	           -0.039758	           -0.017869	           -0.152311	            0.333513	           -1.474011	            0.557741	           -0.220192	            0.005775	           -0.721769	           -0.131035	           -0.141862	           -0.113551
            0.009500	            0.138197	           -0.541753	            0.226619	           -0.276626	            0.005987	           -0.352065	           -0.084843	            0.074566	           -0.125173	           -0.041348	           -1.474862	            0.417116	           -0.220192	            0.005775	           -0.721769	           -0.112276	           -0.132409	           -0.094675
            0.010000	            0.550361	           -0.721153	            0.041399	           -0.276626	            0.005987	           -0.352065	           -0.038903	            0.101763	            0.061611	           -0.274953	           -1.659689	            0.369631	           -0.220192	            0.005775	           -0.721769	           -0.112258	           -0.141727	           -0.132409
            0.010500	            0.322057	           -0.722770	            0.408815	           -0.276626	            0.005987	           -0.352065	           -0.036534	            0.047501	           -0.249170	           -0.463847	           -1.290730	           -0.004400	           -0.220192	            0.005775	           -0.721769	           -0.093508	           -0.123023	           -0.056949
            0.011000	            0.093019	            0.177924	            0.550816	           -0.276626	            0.005987	           -0.352065	           -0.117643	           -0.110479	           -0.090269	            0.052229	           -1.473520	            0.135508	           -0.220192	            0.005775	           -0.721769	           -0.112317	           -0.132072	           -0.188926
            0.011500	           -0.044672	           -0.182241	            0.457900	           -0.276626	            0.005987	           -0.352065	           -0.057464	           -0.193241	           -0.209413	            0.008058	           -2.210449	            0.179828	           -0.220192	            0.005775	           -0.721769	           -0.149889	           -0.123024	           -0.113476
            0.012000	           -0.366498	           -0.721330	            0.043674	           -0.276626	            0.005987	           -0.352065	           -0.020362	           -0.184878	           -0.053950	            0.565042	           -0.736070	            0.419486	           -0.220192	            0.005775	           -0.721769	           -0.131085	           -0.141459	           -0.226652
